<?xml version="1.0" standalone="no"?><!DOCTYPE svg PUBLIC "-//W3C//DTD SVG 1.1//EN" "http://www.w3.org/Graphics/SVG/1.1/DTD/svg11.dtd"><svg class="icon" width="200px" height="200.00px" viewBox="0 0 1024 1024" version="1.1" xmlns="http://www.w3.org/2000/svg"><path d="M413.27 477.675s96.895-7.19 96.895-120.832-79.274-169.11-179.712-169.11H0v635.094h330.453s201.728 6.336 201.728-187.456c0 0 8.811-157.696-118.912-157.696zM145.6 300.608h184.853s44.928 0 44.928 66.07-26.432 75.647-56.384 75.647H145.6V300.608z m176.341 409.323H145.6V540.224h184.853s66.944-0.875 66.944 87.21c0 73.451-48.96 81.771-75.456 82.497z m479.296-360.619c-244.202 0-243.989 244.01-243.989 244.01s-16.768 242.774 243.99 242.774c0 0 217.322 12.373 217.322-168.896H906.795s3.712 68.267-101.824 68.267c0 0-111.766 7.488-111.766-110.486h329.088s36.011-275.669-221.013-275.669z m99.35 190.912h-208.64s13.674-97.899 111.786-97.899c98.091 0 96.854 97.899 96.854 97.899zM664.619 225.152h261.994v78.23H664.62z" fill="#131418" /></svg>